<svg viewBox="0 0 96 96" xmlns="http://www.w3.org/2000/svg" xmlns:xlink="http://www.w3.org/1999/xlink" id="Icons_Subtitles" overflow="hidden"><path d="M78.6 17 17.4 17C15.5112 17.011 13.989 18.5511 14 20.4399 14 20.4399 14 20.44 14 20.44L14 61.78C14.0089 63.5694 15.4666 65.0128 17.256 65.0039 17.304 65.0037 17.352 65.0024 17.4 65L54.8 65 68 79 68 65 78.6 65C80.3872 65.0884 81.9077 63.7112 81.9961 61.924 81.9985 61.876 81.9998 61.828 82 61.78L82 20.44C82.0111 18.5512 80.4889 17.0111 78.6001 17 78.6001 17 78.6 17 78.6 17ZM21 43 33 43 33 47 21 47ZM40 55 21 55 21 51 40 51ZM55 55 44 55 44 51 55 51ZM58 47 38 47 38 43 58 43ZM70 55 59 55 59 51 70 51ZM75 47 62 47 62 43 75 43Z" stroke="none" stroke-width="1" stroke-linecap="butt" fill="#525252" fill-opacity="1"/></svg>